<svg xmlns="http://www.w3.org/2000/svg" viewBox="0 0 409.5 67.5"><defs><style>.a{fill:#fff;}</style></defs><title>Fichier 1</title><path class="a" d="M0,67.5V4.5H4.5V0h45V13.5h-36V27H36V40.5H13.5v27Z"/><path class="a" d="M54,67.5V4.5h4.5V0H99V4.5h4.5v63H90v-27H67.5v27ZM90,27V13.5H67.5V27Z"/><path class="a" d="M112.5,67.5V63H108V4.5h4.5V0h45V13.5h-36V27H144V40.5H121.5V54h36V67.5Z"/><path class="a" d="M162,67.5V0h45V4.5h4.5v27H207V36h4.5V67.5H198v-27H175.5v27ZM198,27V13.5H175.5V27Z"/><path class="a" d="M216,67.5V0h13.5V67.5Z"/><path class="a" d="M252,67.5v-54H234V0h49.5V13.5h-18v54Z"/><path class="a" d="M288,67.5V0h13.5V27H324V0h13.5V67.5H324v-27H301.5v27Z"/><path class="a" d="M351,22.5V18h-4.5V13.5H342V0h13.5V22.5Z"/><path class="a" d="M364.5,67.5V63H360V49.5h13.5V54H396V40.5H364.5V36H360V4.5h4.5V0H405V4.5h4.5V18H396V13.5H373.5V27H405v4.5h4.5V63H405v4.5Z"/></svg>